<svg xmlns="http://www.w3.org/2000/svg" width="383.94" height="391.9" viewBox="0 0 383.94 391.9"><title>silver</title><path d="M186.1,5.6c-18,4.8-32.8,20.1-37.6,38.9-4,15.8.6,34.7,11.4,46.7,2.4,2.7,4.2,5,4,5.2s-4.6,1.7-9.8,3.5c-27.2,9.4-52.9,28.5-69.4,51.8C58.6,188.4,51.5,237,66.1,278.9c1.7,4.7,3.2,9.3,3.5,10.1.4,1.3-.6,1.4-6.5,1.2-17.4-.8-35.8,8.6-45.6,23.4a53.11,53.11,0,0,0-.7,57.9C27,387.2,42.9,396,61.5,396c14.5,0,25.8-4.5,36.4-14.6,3.7-3.4,7.9-8.5,9.4-11.3,3.5-6.3,6.7-15.6,6.7-19.1a7.32,7.32,0,0,1,.6-3.3c.3-.3,3.8,1.6,7.7,4.2,15.4,10.4,36.3,18.5,55.5,21.7,13.7,2.2,39.6,1.5,52.3-1.5,18.1-4.2,36.2-12,50-21.6l6.4-4.5.7,4.9c3.7,24.8,26.7,44.1,52.3,44.1,14.7,0,26.6-4.9,37.1-15.4,11.2-11.1,15.9-22.2,15.9-37.6,0-7.3-.6-11.1-2.3-16.2-7.7-22.4-27.8-36.8-51.4-36.8-4.3,0-7.8-.1-7.8-.3s1.4-4.3,3-9.3c5.5-16.2,7.3-27.1,7.4-44.9,0-18.6-1.7-29.6-6.9-45.3C320.3,147,286.2,113,244.4,99.3l-8.2-2.7,4.5-5.5C249.2,80.7,253,70.1,253,57c0-24.2-15.3-44.4-38.9-51.4C207.3,3.6,193.5,3.6,186.1,5.6Zm29.7,19.8a36.54,36.54,0,0,1,15.8,15.8c3.9,7.5,4.5,19.9,1.4,28-2.8,7.6-10.4,15.9-17.8,19.5-4.9,2.4-6.9,2.8-14.7,2.8-7.6,0-9.8-.4-14.6-2.6a35.87,35.87,0,0,1-17-16.1c-3.1-5.9-3.4-6.9-3.4-15.8,0-8.4.3-10.2,2.8-15.2,3.5-7.1,11.9-14.9,19-17.7C195,21,208.5,21.6,215.8,25.4Zm2.9,86.2c50.4,7.4,91,45.5,102.4,96.1,2.6,11.5,3.1,36.5,1.1,47.3-10.1,51.8-49.9,91.6-100.6,100.5-11.4,1.9-31.8,1.9-43.2,0-47.3-8.3-86.1-44.4-98-91.4a123.53,123.53,0,0,1,63.2-140.3A121.73,121.73,0,0,1,218.7,111.6ZM355.8,311a35.5,35.5,0,0,1,16.1,17c2.1,4.6,2.6,6.9,2.6,14,0,7.7-.3,9.2-3.3,15.2-5.9,11.9-16.1,18.8-29.2,19.6-8.9.5-13.6-.6-21-5-10.4-6.3-16.5-17.5-16.3-30.3.1-8.4,2.1-14.2,7-20.7,7.4-9.7,17-14.1,29.8-13.5C348.3,307.6,350.5,308.1,355.8,311Zm-279.7.2c13.4,6.1,22.1,21.4,20.5,35.8-1.4,12.4-10.9,24.7-22.4,29-7.8,2.9-20.5,2.6-27.4-.8a35.47,35.47,0,0,1-19.9-26.4c-3-16.4,7-33.1,23.6-39.1C57.6,307.2,68.7,307.8,76.1,311.2Z" transform="translate(-8.56 -4.1)"/></svg>