<?xml version="1.0" encoding="utf-8"?>
<!-- Generator: Adobe Illustrator 23.0.3, SVG Export Plug-In . SVG Version: 6.00 Build 0)  -->
<svg version="1.1" id="Layer_1" xmlns="http://www.w3.org/2000/svg" xmlns:xlink="http://www.w3.org/1999/xlink" x="0px" y="0px"
	 viewBox="0 0 400 400" style="enable-background:new 0 0 400 400;" xml:space="preserve">
<style type="text/css">
	.st0{fill:#535A63;}
</style>
<g transform="translate(0.000000,400.000000) scale(0.100000,-0.100000)">
	<path class="st0" d="M1861,3944c-180-48-328-201-376-389c-40-158,6-347,114-467c24-27,42-50,40-52c-2-1-46-17-98-35
		c-272-94-529-285-694-518c-261-367-332-853-186-1272c17-47,32-93,35-101c4-13-6-14-65-12c-174,8-358-86-456-234
		C58,689,56,458,168,285C270,128,429,40,615,40c145,0,258,45,364,146c37,34,79,85,94,113c35,63,67,156,67,191c0,15,3,29,6,33
		c3,3,38-16,77-42c154-104,363-185,555-217c137-22,396-15,523,15c181,42,362,120,500,216l64,45l7-49c37-248,267-441,523-441
		c147,0,266,49,371,154c112,111,159,222,159,376c0,73-6,111-23,162c-77,224-278,368-514,368c-43,0-78,1-78,3s14,43,30,93
		c55,162,73,271,74,449c0,186-17,296-69,453c-142,422-483,762-901,899l-82,27l45,55c85,104,123,210,123,341c0,242-153,444-389,514
		C2073,3964,1935,3964,1861,3944z M2158,3746c67-34,124-91,158-158c39-75,45-199,14-280c-28-76-104-159-178-195c-49-24-69-28-147-28
		c-76,0-98,4-146,26c-76,36-129,86-170,161c-31,59-34,69-34,158c0,84,3,102,28,152c35,71,119,149,190,177
		C1950,3790,2085,3784,2158,3746z M2187,2884c504-74,910-455,1024-961c26-115,31-365,11-473c-101-518-499-916-1006-1005
		c-114-19-318-19-432,0c-473,83-861,444-980,914c-142,558,121,1141,632,1403C1670,2882,1924,2924,2187,2884z M3558,890
		c73-39,124-92,161-170c21-46,26-69,26-140c0-77-3-92-33-152c-59-119-161-188-292-196c-89-5-136,6-210,50c-104,63-165,175-163,303
		c1,84,21,142,70,207c74,97,170,141,298,135C3483,924,3505,919,3558,890z M761,888c134-61,221-214,205-358c-14-124-109-247-224-290
		c-78-29-205-26-274,8c-108,53-177,144-199,264c-30,164,70,331,236,391C576,928,687,922,761,888z"/>
</g>
</svg>
