<?xml version="1.0" encoding="utf-8"?>
<!-- Generator: Adobe Illustrator 23.0.3, SVG Export Plug-In . SVG Version: 6.00 Build 0)  -->
<svg version="1.1" id="Layer_1" xmlns="http://www.w3.org/2000/svg" xmlns:xlink="http://www.w3.org/1999/xlink" x="0px" y="0px"
	 viewBox="0 0 1032 1280" style="enable-background:new 0 0 1032 1280;" xml:space="preserve">
<style type="text/css">
	.st0{fill:#FFFFFF;stroke:#535458;stroke-width:7;stroke-miterlimit:10;}
	.st1{fill:#535458;}
	.st2{font-family:'SweetGothic-Medium';}
	.st3{font-size:72px;}
</style>
<g transform="translate(0.000000,1280.000000) scale(0.100000,-0.100000)">
	<path class="st0" d="M5142.2,7635.1c-15.9-10.8-189.2-94.9-260-126.3c-67.2-29.6-160.6-64.3-232.1-86
		c-109.2-33.1-173-46.9-370.9-80c-58.5-9.7-109.4-18.8-113.1-20.3l-6.6-2.7l1.2-74.2c1.2-69.7,3.3-123,10.1-257
		c6.4-125.5,13.4-245,17.4-298.3c7.7-99.6,27.5-199.3,76.3-386.8c22.3-85,79-238.1,119.9-322.7c32.2-66.6,116.2-207.8,163.3-274.9
		c5.8-8.1,17.4-24.6,26-36.6c28.7-40.7,49.8-68.4,71.7-93.8c34.3-39.9,91.4-100.9,114.5-122c51.9-47.8,142.4-127.5,187.7-165.2
		c19.2-15.9,43.2-32.3,80.6-55.2c13.4-8.1,30.4-19.2,37.8-24.6c13.2-9.7,70.7-40.1,84.3-44.4c6.4-2.1,8.7-1.7,22.3,3.7
		c26.9,10.8,60.6,28.7,88.7,47.1c14.9,10.1,32.9,21.5,39.9,25.6c47.7,28.3,90.5,62.6,187.9,150.1c66.8,60,78.8,71.7,117.8,112.9
		c71.1,75.5,90.1,98.8,148.8,181.5c147.4,207.5,242.3,407.7,304.7,642.1c47.5,178,67.6,292.5,75.7,431
		c9.5,162.9,18.2,363,22.3,515.4l1.4,47.7l-4.6,1.4c-22.9,6.4-39.7,9.7-78.1,15.7c-46.9,7.2-142,23.6-202.4,35.1
		c-158.1,29.8-316.7,81.2-475.5,153.8c-82.1,37.6-219.3,105.8-226.4,112.5c-1.2,1-6.4,1.7-11.6,1.5
		C5153.2,7641.1,5148.9,7639.6,5142.2,7635.1z"/>
</g>
<text transform="matrix(1 0 0 1 452.9565 640.0001)" class="st1 st2 st3">AG</text>
</svg>
