<?xml version="1.0" encoding="utf-8"?>
<!-- Generator: Adobe Illustrator 23.0.3, SVG Export Plug-In . SVG Version: 6.00 Build 0)  -->
<svg version="1.1" id="Capa_1" xmlns="http://www.w3.org/2000/svg" xmlns:xlink="http://www.w3.org/1999/xlink" x="0px" y="0px"
	 viewBox="0 0 910.3 910.3" style="enable-background:new 0 0 910.3 910.3;" xml:space="preserve">
<style type="text/css">
	.st0{fill:#FFFFFF;}
</style>
<g>
	<g>
		<path class="st0" d="M755,273.6l-0.9-20.4l-20.4-2.1c-78.2-8-145.4-37.2-188.1-60.3c-46.7-25.3-75-49-75.3-49.2l-15.3-12.9
			l-15.3,12.9c-0.3,0.2-28.6,23.9-75.3,49.2c-42.6,23.1-109.9,52.3-188.1,60.3l-20.4,2.1l-0.9,20.4c-0.2,3.7-3.4,90.9,30.2,196.5
			c19.8,62.3,48.4,118.2,85.1,166c46,60,104.7,107.4,174.4,140.6l10.2,4.9l10.2-4.9c69.7-33.3,128.4-80.6,174.4-140.6
			c36.6-47.8,65.3-103.6,85.1-166C758.4,364.5,755.1,277.3,755,273.6z M455.1,729c-58.2-29.6-107.4-70.2-146.5-121
			c-33.3-43.2-59.4-94-77.6-150.8c-22.3-69.4-27.3-131.4-28.3-161.8c31.4-4.7,63.1-12.5,94.6-23.4c30.8-10.6,61.4-24.2,91-40.3
			c30.1-16.4,52.9-32,66.8-42.2c13.9,10.2,36.8,25.8,66.8,42.2c29.6,16.1,60.3,29.7,91,40.3c31.5,10.9,63.2,18.7,94.6,23.4
			c-1,30.1-5.9,91.2-27.9,160.3c-18.2,57.1-44.2,108.1-77.5,151.5C563,658.4,513.6,699.3,455.1,729z"/>
		<polygon class="st0" points="584.2,347.5 551.1,380.5 428,503.6 365.7,441.2 357.2,432.7 340.5,449.4 340.5,449.4 323.7,466.2 
			428,570.5 617.6,380.9 		"/>
	</g>
</g>
</svg>
