<?xml version="1.0" encoding="utf-8"?>
<!-- Generator: Adobe Illustrator 23.0.3, SVG Export Plug-In . SVG Version: 6.00 Build 0)  -->
<svg version="1.1" id="Layer_1" xmlns="http://www.w3.org/2000/svg" xmlns:xlink="http://www.w3.org/1999/xlink" x="0px" y="0px"
	 viewBox="0 0 512 512" style="enable-background:new 0 0 512 512;" xml:space="preserve">
<style type="text/css">
	.st0{fill:#FFFFFF;}
	.st1{fill:#E7E7E7;}
	.st2{fill:#929292;}
</style>
<path class="st0" d="M440.4,69l-4.5,4.9C387.7,26.2,323.8,0,256,0C193.8,0,133.9,22.6,87.2,63.5C31.8,112.1,0,182.3,0,256
	c0,9.9,8,17.9,17.9,17.9s17.9-8,17.9-17.9c0-63.4,27.4-123.8,75.1-165.6c40.2-35.2,91.7-54.6,145.2-54.6c58.4,0,113.5,22.6,155,63.7
	c0.2,0.2,0.5,0.4,0.7,0.6l-5.3,5.7c-6.7,7.2-1.1,18.9,8.7,18.3l32.9-2.2c5.6-0.4,10-4.9,10.2-10.5l1.2-34.6
	C459.7,66.7,447.3,61.6,440.4,69z"/>
<path class="st0" d="M17.9,273.9C8,273.9,0,265.9,0,256c0-73.7,31.8-143.9,87.2-192.5C133.9,22.6,193.8,0,256,0v35.7
	c-53.5,0-105.1,19.4-145.2,54.6C63.1,132.2,35.7,192.6,35.7,256C35.7,265.9,27.7,273.9,17.9,273.9z"/>
<path class="st0" d="M256,512c-62.2,0-122.1-22.5-168.8-63.5c-7.4-6.5-8.2-17.8-1.6-25.2c6.5-7.4,17.8-8.2,25.2-1.6
	c40.2,35.2,91.7,54.6,145.2,54.6c62.8,0,122.8-26.9,164.6-73.9C456.5,362,476.3,310,476.3,256c0-9.9,8-17.9,17.9-17.9
	s17.9,8,17.9,17.9c0,62.8-23,123.2-64.7,170.1C398.8,480.7,329,512,256,512z"/>
<path class="st0" d="M110.8,421.7c-0.7-0.6-1.3-1.1-2-1.5l4.5-4.9c6.7-7.2,1.1-18.9-8.7-18.3l-32.9,2.2c-5.6,0.4-10,4.9-10.2,10.5
	l-1.2,34.6c-0.3,10.1,12,15.2,18.9,7.8l5.6-6.1c0.7,0.9,1.5,1.8,2.4,2.6C133.9,489.5,193.8,512,256,512v-35.7
	C202.5,476.3,151,456.9,110.8,421.7z"/>
<circle class="st1" cx="256" cy="256" r="161.4"/>
<path class="st1" d="M256,417.3c-89.1,0-161.3-72.2-161.3-161.3S166.9,94.7,256,94.7V417.3z"/>
<path class="st2" d="M184.7,312.1l2.4-2.6c8.1-9,7.9-22.6-0.4-31.4l-1.3-1.3c-5.4-5.7-7.6-13.9-5.6-21.5
	c2.5-10.1-1.9-20.6-10.9-25.7L107.5,193c-8.2,19.4-12.8,40.7-12.8,63.1c0,63.5,36.7,118.5,90.1,144.8l-5.7-69.2
	C177.8,324.5,179.9,317.4,184.7,312.1z"/>
<g>
	<path class="st2" d="M370,141.8l-10.7,11.7c-4.6,5.1-11.1,8.1-18,8.3l-48.2,1.9c-8.5,0.3-16.4,4.9-20.9,12.2l-12.4,19.9
		c-5.6,9-5.1,20.5,1.3,29l7.7,10.2c5.8,7.7,9,17.2,8.9,26.9l-0.2,31.6c-0.1,16.7,14.9,29.4,31.3,26.5l35.1-6
		c9.7-1.7,18.5-6.5,25.1-13.7l0,0c11.8-12.8,29.4-17.1,45-12.6c2-10.3,3.1-20.9,3.1-31.7C417.3,211.4,399.2,171,370,141.8z"/>
	<path class="st2" d="M265.1,378.5L265.1,378.5c-10.7,4.8-16.9,16.2-15,27.8l1.8,11c1.4,0,2.7,0.1,4.1,0.1
		c26.1,0,50.7-6.2,72.5-17.2l-2.7-4.1C312.5,376.3,286.9,368.9,265.1,378.5z"/>
</g>
<path class="st2" d="M186.3,158.5l32.7-18.4c5.1-2.9,8.9-7.8,10.3-13.5l7.8-30.8c-36.8,4.3-69.8,20.9-94.7,45.7l20.3,15.5
	C169.6,162.1,178.9,162.7,186.3,158.5z"/>
</svg>
